<?xml version="1.0" encoding="utf-8"?>
<!-- Generator: Adobe Illustrator 17.1.0, SVG Export Plug-In . SVG Version: 6.00 Build 0)  -->
<!DOCTYPE svg PUBLIC "-//W3C//DTD SVG 1.1//EN" "http://www.w3.org/Graphics/SVG/1.1/DTD/svg11.dtd">
<svg version="1.1" id="mobile" xmlns="http://www.w3.org/2000/svg" xmlns:xlink="http://www.w3.org/1999/xlink" x="0px" y="0px"
	 viewBox="0 0 565.543 1010" enable-background="new 0 0 565.543 1010" xml:space="preserve">
<path id="mobile-mobile" fill="#323B5A" d="M460.5254,0H104.981C47.2901,0,0,47.272,0,104.9814v799.9659
	C0,962.6563,47.2901,1010,104.981,1010h355.5444c57.7451,0,105.0176-47.3437,105.0176-105.0527V104.9814
	C565.543,47.272,518.2705,0,460.5254,0z M299.6109,68.6128c0,9.3252-7.5503,16.9287-16.75,16.9287
	c-9.4688,0-16.9112-7.6035-16.9112-16.9287c0-9.1816,7.4424-16.7857,16.9112-16.7857
	C292.0606,51.8271,299.6109,59.4312,299.6109,68.6128z M347.4199,939.8809c0,7.1015-5.8281,12.8398-12.9296,12.8398H231.0698
	c-7.1377,0-12.9658-5.7383-12.9658-12.8398v-6.4922c0-7.0645,5.8281-12.9112,12.9658-12.9112h103.4205
	c7.1015,0,12.9296,5.8467,12.9296,12.9112V939.8809z M510.0215,864.9199h-454.5V144.9727h454.5V864.9199z"/>
</svg>
